<svg width="15" height="15" viewBox="0 0 15 15" fill="none" xmlns="http://www.w3.org/2000/svg">
<path d="M7.5 15C6.48438 15 5.5127 14.8022 4.58496 14.4067C3.65723 14.0112 2.85889 13.479 2.18994 12.8101C1.521 12.1411 0.98877 11.3428 0.593262 10.415C0.197754 9.4873 0 8.51562 0 7.5C0 6.48438 0.197754 5.5127 0.593262 4.58496C0.98877 3.65723 1.521 2.85889 2.18994 2.18994C2.85889 1.521 3.65723 0.98877 4.58496 0.593262C5.5127 0.197754 6.48438 0 7.5 0C8.51562 0 9.4873 0.197754 10.415 0.593262C11.3428 0.98877 12.1411 1.521 12.8101 2.18994C13.479 2.85889 14.0112 3.65723 14.4067 4.58496C14.8022 5.5127 15 6.48438 15 7.5C15 8.51562 14.8022 9.4873 14.4067 10.415C14.0112 11.3428 13.479 12.1411 12.8101 12.8101C12.1411 13.479 11.3428 14.0112 10.415 14.4067C9.4873 14.8022 8.51562 15 7.5 15ZM11.4551 6.51855C11.3379 6.57715 11.2158 6.57715 11.0889 6.51855C10.9619 6.45996 10.8716 6.36475 10.8179 6.23291C10.7642 6.10107 10.7642 5.9668 10.8179 5.83008C10.8716 5.69336 10.9619 5.60059 11.0889 5.55176L12.4805 4.92188C11.9238 3.85742 11.123 3.05176 10.0781 2.50488L9.44824 3.91113C9.39941 4.03809 9.30664 4.12842 9.16992 4.18213C9.0332 4.23584 8.89893 4.23584 8.76709 4.18213C8.63525 4.12842 8.54004 4.03809 8.48145 3.91113C8.42285 3.78418 8.42285 3.65723 8.48145 3.53027L9.11133 2.10938C8.58398 1.95312 8.04688 1.875 7.5 1.875C6.95312 1.875 6.41602 1.95312 5.88867 2.10938L6.51855 3.53027C6.57715 3.65723 6.57715 3.78418 6.51855 3.91113C6.45996 4.03809 6.36475 4.12842 6.23291 4.18213C6.10107 4.23584 5.9668 4.23584 5.83008 4.18213C5.69336 4.12842 5.60059 4.03809 5.55176 3.91113L4.92188 2.50488C3.87695 3.04199 3.07617 3.84766 2.51953 4.92188L3.91113 5.53711C4.02832 5.5957 4.11377 5.69092 4.16748 5.82275C4.22119 5.95459 4.22119 6.08887 4.16748 6.22559C4.11377 6.3623 4.02588 6.45752 3.90381 6.51123C3.78174 6.56494 3.65723 6.5625 3.53027 6.50391L2.10938 5.88867C1.95312 6.41602 1.875 6.95312 1.875 7.5C1.875 8.04688 1.95312 8.58398 2.10938 9.11133L3.53027 8.49609C3.65723 8.4375 3.78174 8.43506 3.90381 8.48877C4.02588 8.54248 4.11377 8.6377 4.16748 8.77441C4.22119 8.91113 4.22119 9.04541 4.16748 9.17725C4.11377 9.30908 4.02832 9.4043 3.91113 9.46289L2.51953 10.0781C3.07617 11.1426 3.87695 11.9482 4.92188 12.4951L5.53711 11.0889C5.5957 10.9717 5.69092 10.8862 5.82275 10.8325C5.95459 10.7788 6.08887 10.7788 6.22559 10.8325C6.3623 10.8862 6.45752 10.9741 6.51123 11.0962C6.56494 11.2183 6.5625 11.3428 6.50391 11.4697L5.88867 12.8906C6.41602 13.0469 6.95312 13.125 7.5 13.125C8.04688 13.125 8.58398 13.0469 9.11133 12.8906L8.49609 11.4697C8.4375 11.3428 8.43506 11.2183 8.48877 11.0962C8.54248 10.9741 8.6377 10.8862 8.77441 10.8325C8.91113 10.7788 9.04541 10.7788 9.17725 10.8325C9.30908 10.8862 9.4043 10.9717 9.46289 11.0889L10.0781 12.4951C11.1328 11.9482 11.9336 11.1426 12.4805 10.0781L11.0889 9.44824C10.9619 9.39941 10.8716 9.30664 10.8179 9.16992C10.7642 9.0332 10.7642 8.89893 10.8179 8.76709C10.8716 8.63525 10.9619 8.54004 11.0889 8.48145C11.2158 8.42285 11.3379 8.42285 11.4551 8.48145L12.8906 9.11133C13.0469 8.58398 13.125 8.04688 13.125 7.5C13.125 6.95312 13.0469 6.41602 12.8906 5.88867L11.4551 6.51855ZM7.5 8.4375C7.23633 8.4375 7.01416 8.34717 6.8335 8.1665C6.65283 7.98584 6.5625 7.76367 6.5625 7.5C6.5625 7.29492 6.62354 7.10938 6.74561 6.94336C6.86768 6.77734 7.02637 6.66504 7.22168 6.60645L10.7812 3.75H11.0156C11.084 3.75 11.1401 3.77197 11.1841 3.81592C11.228 3.85986 11.25 3.91602 11.25 3.98438V4.21875L8.39355 7.77832C8.33496 7.97363 8.22266 8.13232 8.05664 8.25439C7.89062 8.37646 7.70508 8.4375 7.5 8.4375Z" fill="#49C096"/>
</svg>
