<svg width="22" height="24" viewBox="0 0 22 24" fill="none" xmlns="http://www.w3.org/2000/svg">
<path fill-rule="evenodd" clip-rule="evenodd" d="M15.0825 6.33L16.9306 3.62812C15.2119 3.75187 13.1669 4.15563 11.1981 4.72563C9.79186 5.13188 8.22936 5.07 6.78249 4.80312C6.41788 4.73553 6.05578 4.65506 5.69686 4.56187L6.89686 6.32875C9.46874 7.24437 12.51 7.24438 15.0825 6.33ZM6.17499 7.39375C9.18436 8.55625 12.8012 8.55625 15.8106 7.3925C17.0668 8.71668 18.1176 10.2215 18.9281 11.8569C19.7731 13.5806 20.2331 15.3038 20.1581 16.7887C20.0856 18.2219 19.5219 19.4462 18.2344 20.3562C16.8925 21.3044 14.6356 21.9981 11.0237 21.9981C7.40811 21.9981 5.14061 21.3162 3.78624 20.3787C2.48936 19.48 1.91999 18.2725 1.83936 16.8587C1.75499 15.39 2.20499 13.6756 3.04686 11.94C3.84999 10.285 4.97061 8.69187 6.17499 7.39375ZM5.45624 3.1975C5.95624 3.34625 6.47874 3.47562 7.00874 3.57375C8.35249 3.82125 9.69999 3.8575 10.85 3.52437C12.1901 3.13397 13.5531 2.82692 14.9312 2.605C13.7812 2.25875 12.4362 2 11.0237 2C8.87061 2 6.86249 2.60063 5.45624 3.1975ZM4.21999 2.38813C5.75436 1.6375 8.27061 0.75 11.0244 0.75C13.7206 0.75 16.1706 1.60062 17.6962 2.34125L17.7825 2.38312C18.2425 2.61062 18.6137 2.82563 18.875 3L16.5662 6.375C21.8887 11.8162 26 23.2481 11.0244 23.2481C-3.95126 23.2481 0.0493628 12.0238 5.41811 6.375L3.12436 3C3.30124 2.88438 3.52561 2.75 3.79311 2.6075C3.92561 2.53625 4.06811 2.46312 4.22061 2.38875L4.21999 2.38813Z" fill="#EFEFEF"/>
</svg>
