<svg width="20" height="26" viewBox="0 0 20 26" fill="none" xmlns="http://www.w3.org/2000/svg">
<path d="M6.12475 23.1005H16.4918C16.8844 23.9141 17.36 24.6848 17.9108 25.4005H6.12475C3.07873 25.4005 0.599756 22.9215 0.599756 19.8755C0.599756 16.8295 3.07873 14.3505 6.12475 14.3505H14.8748C15.9637 14.3505 16.8498 13.4645 16.8498 12.3755C16.8498 11.2865 15.9637 10.4005 14.8748 10.4005H7.32372C7.91997 9.69379 8.43517 8.92232 8.85958 8.10049H14.8748C17.232 8.10049 19.1498 10.0182 19.1498 12.3755C19.1498 14.7328 17.232 16.6505 14.8748 16.6505H6.12475C4.34578 16.6505 2.89976 18.0965 2.89976 19.8755C2.89976 21.6545 4.34578 23.1005 6.12475 23.1005ZM4.35464 10.3126C4.31114 10.3422 4.27578 10.3655 4.24974 10.3823C4.2237 10.3655 4.18835 10.3423 4.14485 10.3127C4.04393 10.2441 3.89924 10.1413 3.72538 10.0055C3.37751 9.73378 2.91357 9.3303 2.4498 8.80377C1.52164 7.74999 0.599756 6.21008 0.599756 4.25049C0.599756 2.23822 2.23748 0.600488 4.24976 0.600488C6.26203 0.600488 7.89975 2.23822 7.89975 4.25049C7.89975 6.20945 6.97788 7.74936 6.04971 8.8033C5.58593 9.32992 5.12199 9.73352 4.77412 10.0053C4.60025 10.1412 4.45556 10.244 4.35464 10.3126ZM3.49373 6.07485C3.73339 6.17422 3.99028 6.2254 4.24972 6.22549C4.77369 6.22566 5.27627 6.01768 5.64689 5.64731C6.01752 5.27693 6.22583 4.77449 6.226 4.25052C6.22618 3.72655 6.0182 3.22398 5.64782 2.85335C5.27744 2.48273 4.77501 2.27441 4.25104 2.27424C3.9916 2.27415 3.73468 2.32517 3.49495 2.42437C3.25522 2.52358 3.03738 2.66903 2.85387 2.85242C2.67035 3.03581 2.52476 3.25355 2.42539 3.49322C2.32603 3.73288 2.27484 3.98976 2.27476 4.2492C2.27467 4.50865 2.32568 4.76557 2.42489 5.00529C2.52409 5.24502 2.66954 5.46286 2.85294 5.64638C3.03633 5.82989 3.25407 5.97549 3.49373 6.07485Z" fill="#EFEFEF" stroke="white" stroke-width="0.2"/>
</svg>
