<svg width="12" height="14" viewBox="0 0 12 14" fill="none" xmlns="http://www.w3.org/2000/svg">
<path d="M11.7225 3.01273L6.36543 0.0663361C6.28632 0.0228186 6.1975 0 6.10722 0C6.01693 0 5.92811 0.0228186 5.84901 0.0663361L0.491929 3.01273C0.407937 3.05897 0.337896 3.12691 0.289115 3.20946C0.240333 3.292 0.2146 3.38613 0.2146 3.48201C0.2146 3.57789 0.240333 3.67201 0.289115 3.75456C0.337896 3.8371 0.407937 3.90504 0.491929 3.95129L5.57151 6.745V12.4873L3.9451 11.5926L3.42868 12.5306L5.84901 13.8619C5.92808 13.9055 6.01691 13.9284 6.10722 13.9284C6.19752 13.9284 6.28635 13.9055 6.36543 13.8619L11.7225 10.9155C11.8065 10.8693 11.8766 10.8013 11.9254 10.7188C11.9742 10.6362 12 10.5421 12 10.4462V3.48201C12 3.38611 11.9742 3.29197 11.9254 3.20943C11.8766 3.12688 11.8065 3.05895 11.7225 3.01273ZM6.10722 1.14739L10.3527 3.48201L6.10722 5.81662L1.86173 3.48201L6.10722 1.14739ZM10.9286 10.1296L6.64292 12.4867V6.74447L10.9286 4.38735V10.1296Z" fill="#A646D5"/>
</svg>
